<?xml version="1.0" encoding="UTF-8"?>
<!DOCTYPE svg PUBLIC "-//W3C//DTD SVG 1.1//EN" "http://www.w3.org/Graphics/SVG/1.1/DTD/svg11.dtd">
<!-- Creator: CorelDRAW -->
<svg xmlns="http://www.w3.org/2000/svg" xml:space="preserve" width="2048px" height="2048px" style="shape-rendering:geometricPrecision; text-rendering:geometricPrecision; image-rendering:optimizeQuality; fill-rule:evenodd; clip-rule:evenodd"
viewBox="0 0 2048 2048"
 xmlns:xlink="http://www.w3.org/1999/xlink">
 <defs>
  <style type="text/css">
   <![CDATA[
    .fil2 {fill:none}
    .fil3 {fill:#00B0FF}
    .fil4 {fill:#4FC3F7}
    .fil1 {fill:#FB8C00}
    .fil0 {fill:#FFB74D}
   ]]>
  </style>
   <clipPath id="id0">
    <path d="M1024 -0.0011811c565.539,0 1024,458.462 1024,1024 0,565.539 -458.462,1024 -1024,1024 -565.539,0 -1024,-458.462 -1024,-1024 0,-565.539 458.462,-1024 1024,-1024z"/>
   </clipPath>
 </defs>
 <g id="Layer_x0020_1">
  <metadata id="CorelCorpID_0Corel-Layer"/>
  <path class="fil0" d="M1024 -0.0011811c565.539,0 1024,458.462 1024,1024 0,565.539 -458.462,1024 -1024,1024 -565.539,0 -1024,-458.462 -1024,-1024 0,-565.539 458.462,-1024 1024,-1024z"/>
  <g style="clip-path:url(#id0)">
   <g id="_466495736">
    <g>
     <polygon id="_3968071841" class="fil1" points="1063.69,706.678 2199.57,1842.56 2202.61,1845.81 2205.61,1849.14 2208.58,1852.54 2211.5,1856.01 2214.39,1859.56 2217.24,1863.19 2220.05,1866.89 2222.82,1870.67 2225.55,1874.52 2228.24,1878.46 2230.88,1882.46 2233.48,1886.55 2236.04,1890.71 2238.55,1894.95 2241.01,1899.27 2243.43,1903.66 2245.8,1908.13 2248.12,1912.68 2250.39,1917.31 2252.61,1922.02 1116.73,786.14 1114.51,781.432 1112.24,776.802 1109.92,772.251 1107.55,767.779 1105.13,763.384 1102.67,759.067 1100.16,754.828 1097.6,750.666 1095,746.581 1092.36,742.574 1089.67,738.642 1086.94,734.788 1084.17,731.01 1081.36,727.307 1078.51,723.681 1075.62,720.13 1072.69,716.654 1069.73,713.254 1066.73,709.928 "/>
     <polygon id="_396816256" class="fil1" points="1331.47,850.788 2467.35,1986.67 2473.75,1994.01 2479.98,2001.74 2486.05,2009.85 2491.96,2018.35 2497.71,2027.23 2503.3,2036.51 2508.73,2046.18 1372.85,910.296 1367.42,900.627 1361.83,891.35 1356.08,882.465 1350.17,873.967 1344.1,865.856 1337.86,858.131 "/>
     <polygon id="_396825808" class="fil1" points="1523.91,995.354 2659.79,2131.24 2666.67,2139.53 2673.17,2148.13 2679.31,2157.02 2685.05,2166.21 2690.4,2175.69 2695.34,2185.44 2699.86,2195.47 2703.95,2205.75 2707.59,2216.3 2710.79,2227.09 2713.52,2238.12 2715.78,2249.39 2717.56,2260.88 2718.84,2272.6 2719.62,2284.53 2719.88,2296.66 2719.56,2309.66 2718.61,2322.48 2717.05,2335.13 2714.89,2347.57 2712.15,2359.8 2708.84,2371.79 2704.98,2383.54 2700.58,2395.02 2695.67,2406.23 2690.24,2417.13 2684.33,2427.73 2677.95,2437.99 2671.11,2447.91 2663.82,2457.47 2656.11,2466.66 2647.99,2475.45 2639.47,2483.83 2630.57,2491.79 2621.3,2499.31 2611.69,2506.37 2601.74,2512.96 2591.47,2519.06 2580.9,2524.65 2570.05,2529.73 2558.92,2534.27 2547.53,2538.25 2535.91,2541.67 2524.06,2544.5 2512,2546.73 2499.75,2548.34 2487.31,2549.32 2474.72,2549.65 1338.84,1413.76 1351.43,1413.43 1363.87,1412.46 1376.12,1410.84 1388.18,1408.61 1400.03,1405.78 1411.65,1402.37 1423.04,1398.38 1434.17,1393.85 1445.02,1388.77 1455.59,1383.18 1465.86,1377.08 1475.81,1370.49 1485.42,1363.43 1494.68,1355.91 1503.58,1347.95 1512.1,1339.57 1520.23,1330.78 1527.94,1321.59 1535.23,1312.03 1542.07,1302.11 1548.45,1291.84 1554.36,1281.25 1559.78,1270.34 1564.7,1259.14 1569.1,1247.66 1572.96,1235.91 1576.27,1223.92 1579.01,1211.69 1581.17,1199.25 1582.73,1186.6 1583.68,1173.77 1584,1160.78 1583.74,1148.64 1582.96,1136.72 1581.68,1125 1579.9,1113.51 1577.64,1102.24 1574.91,1091.2 1571.71,1080.41 1568.06,1069.87 1563.98,1059.58 1559.46,1049.56 1554.52,1039.81 1549.17,1030.33 1543.43,1021.14 1537.29,1012.24 1530.78,1003.64 "/>
     <polygon id="_396824824" class="fil1" points="1338.84,1413.76 2474.72,2549.65 2159.98,2549.65 1024.09,1413.76 "/>
     <polygon id="_396816424" class="fil1" points="1024.09,1413.76 2159.98,2549.65 2159.88,2549.65 1024,1413.76 "/>
     <polygon id="_396814288" class="fil1" points="1024,1413.76 2159.88,2549.65 1844.51,2549.65 1818.55,2548.41 1793.88,2544.81 1770.52,2538.98 1748.52,2531.07 1727.9,2521.21 1708.7,2509.56 1690.95,2496.25 555.069,1360.37 572.822,1373.68 592.023,1385.33 612.641,1395.18 634.641,1403.1 657.994,1408.93 682.666,1412.53 708.628,1413.76 "/>
    </g>
    <path id="_466499216" class="fil1" d="M674.457 909.705c-18.3319,-233.732 200.648,-337.966 349.543,-236.842l0.796064 0.548032c36.3674,24.9213 68.5241,62.0871 91.9312,112.729 114.98,-19.0099 199.023,18.9189 256.123,124.156 121.286,23.3374 211.151,119.987 211.151,250.481 0,139.459 -110.006,252.986 -245.162,252.986l-314.745 0 -0.0944883 0 -315.372 0c-283.68,0 -352.873,-429.032 -34.1705,-504.059z"/>
   </g>
  </g>
  <path class="fil2" d="M1024 -0.0011811c565.539,0 1024,458.462 1024,1024 0,565.539 -458.462,1024 -1024,1024 -565.539,0 -1024,-458.462 -1024,-1024 0,-565.539 458.462,-1024 1024,-1024z"/>
  <path class="fil3" d="M1024 672.863c-148.895,-101.124 -367.875,3.10984 -349.543,236.842 -318.703,75.0272 -249.509,504.059 34.1705,504.059l315.372 0 0 -740.901z"/>
  <path class="fil4" d="M1338.84 1413.76c135.156,0 245.162,-113.528 245.162,-252.986 0,-130.494 -89.8642,-227.144 -211.151,-250.481 -57.1004,-105.237 -141.143,-143.166 -256.123,-124.156 -23.4071,-50.6422 -55.5638,-87.8079 -91.9312,-112.729l-0.796064 -0.548032 0 740.901 0.0944883 0 314.745 0z"/>
 </g>
</svg>
