<svg width="416" height="416" viewBox="0 0 416 416" fill="none" xmlns="http://www.w3.org/2000/svg">
<path d="M177.345 264.399L243.593 154.722C246.662 149.862 252.023 146.918 257.738 146.918C267.015 146.918 274.529 154.474 274.529 163.804V348.925L334.603 324.199C343.281 320.616 348.925 312.138 348.925 302.737V164.3C348.925 151.494 338.589 141.1 325.855 141.1H257.738C250.013 141.1 242.817 145.073 238.654 151.6L172.407 261.277C169.338 266.137 163.976 269.082 158.261 269.082C148.984 269.082 141.47 261.526 141.47 252.196L141.47 67.0747L81.3966 91.8006C72.7188 95.3836 67.0748 103.862 67.0748 113.263L67.0747 251.699C67.0747 264.505 77.4104 274.9 90.1448 274.9H158.261C165.987 274.9 173.183 270.926 177.345 264.399Z" fill="white"/>
</svg>
