<svg width="64" height="64" viewBox="0 0 64 64" fill="none" xmlns="http://www.w3.org/2000/svg">
<rect width="64" height="64" fill="url(#paint0_linear_1127_250)"/>
<rect width="64" height="64" fill="#0F1117"/>
<path d="M27.6496 40.0042L37.0513 24.4389C37.4869 23.7492 38.2478 23.3313 39.0588 23.3313C40.3755 23.3313 41.4418 24.4036 41.4418 25.7277V52L49.9674 48.4909C51.199 47.9824 52 46.7792 52 45.445V25.7982C52 23.9807 50.5332 22.5056 48.7259 22.5056H39.0588C37.9625 22.5056 36.9412 23.0695 36.3504 23.9958L26.9487 39.5611C26.5131 40.2508 25.7522 40.6687 24.9412 40.6687C23.6245 40.6687 22.5582 39.5964 22.5582 38.2723L22.5582 12L14.0326 15.5091C12.801 16.0176 12 17.2208 12 18.555L12 38.2018C12 40.0193 13.4668 41.4944 15.2741 41.4944H24.9412C26.0375 41.4944 27.0588 40.9305 27.6496 40.0042Z" fill="url(#paint1_linear_1127_250)"/>
<defs>
<linearGradient id="paint0_linear_1127_250" x1="0" y1="0" x2="63.5805" y2="0" gradientUnits="userSpaceOnUse">
<stop stop-color="#15FFAB"/>
<stop offset="1" stop-color="#14D3F9"/>
</linearGradient>
<linearGradient id="paint1_linear_1127_250" x1="12" y1="31.8932" x2="52" y2="31.8932" gradientUnits="userSpaceOnUse">
<stop stop-color="#15FFAB"/>
<stop offset="1" stop-color="#14D3F9"/>
</linearGradient>
</defs>
</svg>
