<svg width="333" height="316" viewBox="0 0 333 316" fill="none" xmlns="http://www.w3.org/2000/svg">
	<path d="M130.378 229.544L208.37 107.406C211.983 101.717 218.296 98.2695 225.023 98.2695C235.946 98.2695 244.791 107.115 244.791 118.038V315.676L315.516 286.73C325.732 282.536 332.377 272.61 332.377 261.605V118.619C332.377 103.627 320.209 91.4588 305.217 91.4588H225.023C215.928 91.4588 207.456 96.11 202.556 103.751L124.564 225.89C120.951 231.579 114.638 235.026 107.91 235.026C96.988 235.026 88.1422 226.18 88.1422 215.258V0.550781L17.4176 29.4968C7.20134 33.6913 0.556641 43.6169 0.556641 54.6222V214.677C0.556641 229.669 12.7248 241.837 27.7169 241.837H107.91C117.005 241.837 125.477 237.186 130.378 229.544Z"
		fill="black" />
</svg>